<?xml version="1.0" encoding="UTF-8" standalone="no"?>
<!-- Created with Inkscape (http://www.inkscape.org/) -->

<svg
   xmlns:dc="http://purl.org/dc/elements/1.1/"
   xmlns:cc="http://creativecommons.org/ns#"
   xmlns:rdf="http://www.w3.org/1999/02/22-rdf-syntax-ns#"
   xmlns:svg="http://www.w3.org/2000/svg"
   xmlns="http://www.w3.org/2000/svg"
   xmlns:xlink="http://www.w3.org/1999/xlink"
   xmlns:sodipodi="http://sodipodi.sourceforge.net/DTD/sodipodi-0.dtd"
   xmlns:inkscape="http://www.inkscape.org/namespaces/inkscape"
   width="80mm"
   height="81mm"
   viewBox="0 0 80 81"
   version="1.1"
   id="svg8"
   sodipodi:docname="2345678.svg"
   inkscape:version="0.92.4 (5da689c313, 2019-01-14)">
  <defs
     id="defs2" />
  <sodipodi:namedview
     id="base"
     pagecolor="#ffffff"
     bordercolor="#666666"
     borderopacity="1.0"
     inkscape:pageopacity="0.0"
     inkscape:pageshadow="2"
     inkscape:zoom="0.7"
     inkscape:cx="-50.021826"
     inkscape:cy="267.54184"
     inkscape:document-units="mm"
     inkscape:current-layer="layer3"
     showgrid="false"
     inkscape:window-width="1366"
     inkscape:window-height="705"
     inkscape:window-x="-8"
     inkscape:window-y="-8"
     inkscape:window-maximized="1"
     borderlayer="true" />
  <metadata
     id="metadata5">
    <rdf:RDF>
      <cc:Work
         rdf:about="">
        <dc:format>image/svg+xml</dc:format>
        <dc:type
           rdf:resource="http://purl.org/dc/dcmitype/StillImage" />
        <dc:title></dc:title>
      </cc:Work>
    </rdf:RDF>
  </metadata>
  <g
     inkscape:label="Layer 1"
     inkscape:groupmode="layer"
     id="layer1"
     sodipodi:insensitive="true"
     style="display:none"
     transform="translate(0,-216)">
    <image
       sodipodi:absref="C:\Users\Utopia\Desktop\90.png"
       xlink:href="90.png"
       width="1786.2595"
       height="1305.3167"
       preserveAspectRatio="none"
       id="image823"
       x="-1001.759"
       y="-123.38865" />
  </g>
  <g
     inkscape:groupmode="layer"
     id="layer2"
     inkscape:label="Layer 2"
     transform="translate(0,-216)" />
  <g
     inkscape:groupmode="layer"
     id="layer3"
     inkscape:label="Layer 3"
     transform="translate(0,-216)">
    <path
       style="fill:#24a474;fill-opacity:0.94974874;stroke:#000000;stroke-width:0.29353738px;stroke-linecap:butt;stroke-linejoin:miter;stroke-opacity:1"
       d="m 5.9404672,284.96472 c 0,0 4.6097298,-6.68255 6.2134998,-10.40043 1.59891,-3.70662 2.81534,-7.65366 3.31387,-11.67396 0.57469,-4.63444 0.22833,-9.38365 -0.41423,-14.00874 -0.31155,-2.24252 -0.80845,-4.48825 -1.65693,-6.57986 -1.81806,-4.48169 -7.2490998,-12.52296 -7.2490998,-12.52296 0,0 7.2939398,-6.26839 11.3914398,-8.70241 1.82362,-1.08326 3.78676,-1.94118 5.79927,-2.58345 3.022797,-0.96468 6.156807,-1.74422 9.320267,-1.87386 4.86029,-0.19918 9.77392,0.51094 14.49817,1.69803 3.08909,0.77622 6.04842,2.07852 8.90602,3.50972 2.0998,1.05168 4.16541,2.23137 6.0064,3.7069 2.69178,2.15743 5.19123,4.63306 7.24909,7.42889 1.71217,2.32615 3.11659,4.92364 4.14233,7.64112 0.86998,2.3048 1.35793,4.76447 1.65694,7.21662 0.48803,4.00231 0.67787,8.09397 0.20712,12.09846 -0.32445,2.76012 -1.15742,5.44799 -2.07116,8.06563 -1.22786,3.51748 -2.62718,7.01855 -4.55658,10.18818 -2.07736,3.41267 -4.57328,6.6097 -7.45621,9.33916 -3.02441,2.86339 -6.3098,5.69087 -10.14873,7.21662 -4.67598,1.85843 -9.93463,2.13528 -14.91241,2.04971 -3.88101,-0.0667 -7.84252,-1.25852 -11.598547,-2.26196 -4.90423,-1.31022 -9.42778,-3.88009 -13.87683,-6.36762 -1.6641798,-0.93047 -4.7636898,-3.18379 -4.7636898,-3.18379 z"
       id="path830"
       inkscape:connector-curvature="0"
       sodipodi:nodetypes="caasacaaaaaassaaasaasssc" />
    <path
       style="fill:#f9f9f9;stroke:#000000;stroke-width:0.61299998;stroke-linecap:butt;stroke-linejoin:miter;stroke-miterlimit:4;stroke-dasharray:none;stroke-opacity:1"
       d="m 37.313412,287.12861 6.134222,-0.002 -0.08295,-13.19739 c 0,0 2.561522,-1.50733 3.5691,-2.57309 0.811993,-0.8589 1.369006,-1.93673 1.909053,-2.9881 0.27231,-0.53012 0.572244,-1.07117 0.664019,-1.66004 0.17939,-1.1511 0.751625,-2.88949 -0.248997,-3.4861 -0.808332,-0.48197 -1.7864,0.64549 -2.573082,1.16202 -0.687636,0.45151 -1.230706,1.09239 -1.826051,1.66006 -0.424777,0.40501 -0.661626,1.18099 -1.245045,1.24503 -0.358578,0.0394 -0.913025,-0.58101 -0.913025,-0.58101 l -0.249008,-5.81018 -4.897147,0.083 0.166004,13.03139 -0.664023,-0.99602 -2.573079,-1.99207 c -0.113018,-0.0875 -0.56503,-0.29208 -1.245036,-0.99603 -0.522911,-0.54131 -0.992394,1.36694 -1.245041,2.15806 -0.177553,0.55599 -0.215291,1.1615 -0.166001,1.74306 0.10743,1.26755 0.311615,2.61173 0.996032,3.68402 0.384538,0.60246 1.019854,1.02696 1.64179,1.37913 0.591287,0.33482 1.338203,0.57386 1.927319,0.66403 0.356585,0.0546 1.079033,-0.0829 1.079033,-0.0829 z"
       id="path832"
       inkscape:connector-curvature="0"
       sodipodi:nodetypes="cccssssssscccccssaaaascc" />
    <path
       style="fill:#f9f9f9;stroke:#000000;stroke-width:0.5950312;stroke-linecap:butt;stroke-linejoin:miter;stroke-miterlimit:4;stroke-dasharray:none;stroke-opacity:1"
       d="m 37.475943,240.3418 c 0,0 -3.472456,-1.99226 -4.39363,-3.66135 -0.446207,-0.80848 -0.846714,-1.82288 -0.823806,-2.74603 0.02925,-1.17858 0.323188,-2.5416 1.098411,-3.47829 0.574464,-0.6941 1.513084,-1.03565 2.379892,-1.28149 0.99975,-0.28352 2.08016,-0.30512 3.112144,-0.18305 1.044805,0.12356 2.23944,0.21061 3.020629,0.91533 0.761564,0.68701 1.059429,1.82025 1.189934,2.83756 0.164723,1.28397 -0.06901,2.65278 -0.549189,3.84443 -0.445292,1.10518 -2.28835,2.74603 -2.28835,2.74603 l -1.922223,1.73914 z"
       id="path834"
       inkscape:connector-curvature="0"
       sodipodi:nodetypes="cssaaaaasccc" />
    <path
       style="fill:#f9f9f9;fill-opacity:1;stroke:#000000;stroke-width:0.61299998;stroke-linecap:butt;stroke-linejoin:miter;stroke-miterlimit:4;stroke-dasharray:none;stroke-opacity:1"
       d="m 28.573456,235.35837 c 2.514946,0.99265 3.957396,3.68518 5.924665,5.53995 2.085593,1.96632 4.676752,3.51718 6.23244,5.92466 0.294955,0.45647 0.454794,1.00191 0.538607,1.53888 0.439178,2.81388 0.679951,5.84235 -0.230834,8.54074 -0.252678,0.74862 -0.783335,1.41145 -1.384978,1.9236 -0.567722,0.48327 -1.262264,0.89633 -2.000533,1.00027 -1.110838,0.15636 -2.300175,-0.12413 -3.308589,-0.61556 -1.568135,-0.76419 -2.887819,-2.05921 -3.924128,-3.46246 -2.257175,-3.0564 -3.945492,-6.66226 -4.693568,-10.38741 -0.540531,-2.69165 -0.588262,-5.6126 0.230834,-8.23297 0.21012,-0.67218 0.534906,-1.43424 1.154156,-1.7697 0.42848,-0.23211 1.008648,-0.1789 1.461928,0 z"
       id="path836"
       inkscape:connector-curvature="0"
       sodipodi:nodetypes="aasaaaaaaaasa" />
    <path
       style="fill:#f9f9f9;stroke:#000000;stroke-width:0.61299998;stroke-linecap:butt;stroke-linejoin:miter;stroke-miterlimit:4;stroke-dasharray:none;stroke-opacity:1"
       d="m 41.917107,259.69997 c 0.94997,-0.18369 1.926801,-0.43747 2.737201,-0.96608 1.017679,-0.66379 1.85909,-1.62179 2.495678,-2.65668 0.329139,-0.53507 0.44228,-1.10106 0.644061,-1.77113 1.69487,-5.62826 3.461983,-12.38187 0.805057,-17.63077 -0.13109,-0.25899 -0.441479,-0.41883 -0.72456,-0.48303 -0.555167,-0.12592 -1.184017,-0.0181 -1.69063,0.24152 -2.550438,1.30703 -4.887059,3.54049 -5.957419,6.19895 -0.140317,0.34851 -0.136201,0.77694 0,1.12707 0.158369,0.40713 0.653057,0.59624 0.885564,0.96608 0.999863,1.59047 1.76674,3.38278 2.093151,5.23287 0.298545,1.69216 0.30966,3.49979 -0.161015,5.15238 -0.309588,1.08699 -1.22663,1.9079 -1.695602,2.93622 -0.120767,0.26481 -0.274227,0.53459 -0.284621,0.82544 -0.01085,0.29439 -0.01011,0.67946 0.227701,0.8539 0.168155,0.12356 0.420559,0.0129 0.625434,-0.0268 z"
       id="path838"
       inkscape:connector-curvature="0"
       sodipodi:nodetypes="csassssssaasssssc" />
  </g>
</svg>
