<?xml version="1.0" encoding="UTF-8" standalone="no"?>
<!-- Created with Inkscape (http://www.inkscape.org/) -->

<svg
   xmlns:dc="http://purl.org/dc/elements/1.1/"
   xmlns:cc="http://creativecommons.org/ns#"
   xmlns:rdf="http://www.w3.org/1999/02/22-rdf-syntax-ns#"
   xmlns:svg="http://www.w3.org/2000/svg"
   xmlns="http://www.w3.org/2000/svg"
   xmlns:xlink="http://www.w3.org/1999/xlink"
   xmlns:sodipodi="http://sodipodi.sourceforge.net/DTD/sodipodi-0.dtd"
   xmlns:inkscape="http://www.inkscape.org/namespaces/inkscape"
   width="199mm"
   height="185mm"
   viewBox="0 0 199 185"
   version="1.1"
   id="svg8"
   inkscape:version="0.92.4 (unknown)"
   sodipodi:docname="456.svg">
  <defs
     id="defs2" />
  <sodipodi:namedview
     id="base"
     pagecolor="#ffffff"
     bordercolor="#666666"
     borderopacity="1.0"
     inkscape:pageopacity="0.0"
     inkscape:pageshadow="2"
     inkscape:zoom="1.4"
     inkscape:cx="321.71633"
     inkscape:cy="502.65651"
     inkscape:document-units="mm"
     inkscape:current-layer="layer9"
     showgrid="false"
     inkscape:window-width="1366"
     inkscape:window-height="711"
     inkscape:window-x="0"
     inkscape:window-y="0"
     inkscape:window-maximized="1" />
  <metadata
     id="metadata5">
    <rdf:RDF>
      <cc:Work
         rdf:about="">
        <dc:format>image/svg+xml</dc:format>
        <dc:type
           rdf:resource="http://purl.org/dc/dcmitype/StillImage" />
        <dc:title />
      </cc:Work>
    </rdf:RDF>
  </metadata>
  <g
     inkscape:label="Layer 1"
     inkscape:groupmode="layer"
     id="layer1"
     transform="translate(0,-112)">
    <g
       id="g961"
       transform="matrix(0.75565513,0,0,0.79631622,-52.629324,88.162292)">
      <g
         style="display:none"
         transform="translate(0,8.392334e-6)"
         id="layer1-6"
         inkscape:label="Layer 1">
        <image
           sodipodi:absref="/media/viktor/054FA7D261D11CD2/Для себя любимого/kroha/static/907.png"
           xlink:href="907.png"
           y="2.4053359"
           x="0.64254904"
           id="image3496"
           preserveAspectRatio="none"
           height="231.62381"
           width="377.44702" />
      </g>
      <g
         inkscape:label="Layer 2"
         id="layer8" />
      <g
         inkscape:label="Layer 3"
         id="layer9">
        <ellipse
           ry="69.76416"
           rx="84.229614"
           cy="120.90507"
           cx="199.87706"
           id="path1690"
           style="opacity:1;fill:#24a474;fill-opacity:1;stroke:none;stroke-width:0.31201163;stroke-miterlimit:4;stroke-dasharray:none;stroke-opacity:1" />
        <ellipse
           ry="6.2726536"
           rx="7.524117"
           cy="201.66687"
           cx="135.13422"
           id="path1686"
           style="opacity:1;fill:#24a474;fill-opacity:1;stroke:none;stroke-width:0.42099521;stroke-miterlimit:4;stroke-dasharray:none;stroke-opacity:1" />
        <ellipse
           ry="14.03302"
           rx="17.025137"
           cy="45.126751"
           cx="253.64073"
           id="path1688"
           style="opacity:1;fill:#24a474;fill-opacity:1;stroke:none;stroke-width:0.2915439;stroke-miterlimit:4;stroke-dasharray:none;stroke-opacity:1" />
        <path
           sodipodi:nodetypes="csssssscsscccccccccccsc"
           inkscape:connector-curvature="0"
           id="path1703"
           d="m 219.41196,157.1214 c -1.1148,2.96812 -3.68033,5.50353 -5.99635,8.01441 -0.88603,0.96065 -2.50189,1.55326 -2.99817,2.67145 -0.88821,2.00144 1.40151,4.36749 0.42836,6.34476 -1.30205,2.64547 -5.09861,4.03976 -7.70958,6.01084 -2.24947,1.69812 -5.08733,2.99287 -6.85292,5.00902 -0.43352,0.49514 -0.80454,1.07162 -0.85657,1.66964 -0.0405,0.45817 0.42827,1.33572 0.42827,1.33572 0,0 -4.1633,3.57828 -6.85294,4.67506 -1.56486,0.63821 -3.37389,0.98371 -5.13969,1.00183 -1.31618,0.0162 -3.85481,-0.6679 -3.85481,-0.6679 l 5.56802,-8.68225 -2.56984,-1.33576 2.99814,-0.66786 -2.56984,-7.34651 3.85478,-5.67692 7.70957,-9.01618 7.28126,-8.34836 7.70954,-4.00721 5.99632,-0.66782 3.85481,1.66963 c 0,0 0.53538,5.44838 -0.42845,8.01441 z"
           style="fill:#c4253e;fill-opacity:1;stroke:#000000;stroke-width:1.32074308;stroke-linecap:butt;stroke-linejoin:miter;stroke-miterlimit:4;stroke-dasharray:none;stroke-opacity:1" />
        <path
           sodipodi:nodetypes="cssssccccccscccccccc"
           inkscape:connector-curvature="0"
           id="path1705"
           d="m 219.84035,149.10699 c 0,0 7.87285,5.78206 12.42087,8.01441 3.45975,1.6982 7.83407,2.12771 11.13602,4.00719 1.8771,1.0685 2.46159,3.55269 4.71141,4.00722 1.74815,0.35304 3.33393,-1.3172 5.13971,-1.33574 3.43211,-0.034 9.85109,2.33754 9.85109,2.33754 l 8.56618,-3.33931 5.56802,-4.00725 -1.71323,-5.00899 3.42647,-2.67147 -4.71141,-5.67689 c 0,0 -3.95697,0.0216 -5.13971,-1.00179 -0.6761,-0.58452 -0.42827,-2.33755 -0.42827,-2.33755 l -5.13971,-2.67147 -9.42279,-3.33932 -8.13789,-2.67147 -12.42096,3.33932 -9.85108,4.67509 -7.70947,6.01085 z"
           style="fill:#d1253e;fill-opacity:1;stroke:#000000;stroke-width:1.32074308;stroke-linecap:butt;stroke-linejoin:miter;stroke-miterlimit:4;stroke-dasharray:none;stroke-opacity:1" />
        <path
           sodipodi:nodetypes="ccsssssccssssscc"
           inkscape:connector-curvature="0"
           id="path1707"
           d="m 202.27967,152.11239 -17.13245,3.67327 c 0,0 -10.72464,2.92766 -15.4191,5.34293 -2.27659,1.17129 -3.85531,3.02357 -5.99635,4.34117 -2.82841,1.74057 -6.16607,2.93445 -8.99448,4.67507 -2.14101,1.31755 -4.44158,2.59381 -5.99632,4.34112 -1.49614,1.68143 -1.23364,4.16188 -2.99817,5.67691 -1.84615,1.58513 -7.28125,3.0054 -7.28125,3.0054 l -8.56615,5.34293 c 0,0 10.82641,-1.96674 15.8474,-0.66785 1.05834,0.27369 1.51007,1.39941 2.56987,1.6697 2.17533,0.55478 4.83875,0.51348 6.85292,-0.33397 2.51288,-1.05728 2.99465,-3.87355 5.13971,-5.34295 2.8336,-1.94103 6.46422,-3.04675 9.85112,-4.34119 4.3094,-1.64692 13.27768,-4.34112 13.27768,-4.34112 z"
           style="fill:#da253e;fill-opacity:1;stroke:#000000;stroke-width:1.32074308;stroke-linecap:butt;stroke-linejoin:miter;stroke-miterlimit:4;stroke-dasharray:none;stroke-opacity:1" />
        <path
           sodipodi:nodetypes="ccsscsssssscccc"
           inkscape:connector-curvature="0"
           id="path1709"
           d="m 148.74097,174.48595 v 0 c 0,0 -5.81243,-2.99111 -8.99448,-2.67147 -3.65424,0.36702 -5.64948,3.8047 -8.99449,5.00906 -1.60328,0.57717 -5.13971,1.00175 -5.13971,1.00175 0,0 -3.38602,-0.36194 -4.28307,-1.33572 -1.50154,-1.62981 0.50387,-4.14035 -0.42831,-6.01081 -0.73493,-1.47461 -3.88523,-2.09143 -3.85478,-3.6733 0.0654,-3.39232 4.60629,-6.27378 8.56619,-7.68043 2.07872,-0.73845 4.57785,0.15988 6.85294,0 4.76928,-0.33519 9.37563,-1.58586 14.1342,-2.00363 12.78117,-1.12214 38.54779,-1.33574 38.54779,-1.33574 l -12.31558,3.69821 -9.09987,5.98584 z"
           style="fill:#c4253e;fill-opacity:1;stroke:#000000;stroke-width:1.32074308;stroke-linecap:butt;stroke-linejoin:miter;stroke-miterlimit:4;stroke-dasharray:none;stroke-opacity:1" />
        <path
           sodipodi:nodetypes="ccccccccccssccccc"
           inkscape:connector-curvature="0"
           id="path1711"
           d="m 185.14722,155.78566 h -27.84007 l -18.4173,-6.67869 -12.84926,-1.00179 -1.2849,-4.00722 5.99631,-4.00719 12.84926,-3.33935 h 3.42647 l 3.85478,-7.68046 3.85478,-4.67508 c 0.007,-0.0988 1.93177,-0.16178 5.13971,-0.44162 1.09361,-0.0954 2.27162,-0.79843 3.43772,-0.5146 3.91628,0.95323 7.6983,4.29553 7.6983,4.29553 l 11.56435,10.35196 8.5662,8.68227 11.1361,5.34295 z"
           style="fill:#f0253e;fill-opacity:1;stroke:#000000;stroke-width:1.32074308;stroke-linecap:butt;stroke-linejoin:miter;stroke-miterlimit:4;stroke-dasharray:none;stroke-opacity:1" />
        <path
           sodipodi:nodetypes="cccccsccccccccccccccc"
           inkscape:connector-curvature="0"
           id="path1713"
           d="m 209.98923,148.10518 c 5.0518,1.89565 9.23691,-3.17363 13.70577,-6.67869 l 2.14158,-9.35013 -5.13972,-14.6931 -9.85108,-15.36097 c 0,0 -2.99818,-0.31527 -2.99818,1.02045 0,1.33575 -5.99632,0.98312 -5.99632,0.98312 l -3.85477,-2.33749 -0.4283,1.33574 -6.42464,3.33932 -4.71139,4.34114 -8.56618,6.34476 -7.28126,-1.00181 -6.42464,-6.34474 -2.14154,-2.33752 1.71324,9.35012 7.28125,11.01978 14.5625,13.69133 5.56802,5.34291 11.13613,5.34297 z"
           style="fill:#f0253e;fill-opacity:1;stroke:#000000;stroke-width:1.32074308;stroke-linecap:butt;stroke-linejoin:miter;stroke-miterlimit:4;stroke-dasharray:none;stroke-opacity:1" />
        <path
           sodipodi:nodetypes="caassssscccccccccc"
           inkscape:connector-curvature="0"
           id="path1715"
           d="m 225.83658,132.07636 c 0,0 12.00091,-4.00291 15.41912,-8.01441 2.09171,-2.45479 2.14005,-5.73517 2.14154,-8.68229 0.002,-5.32668 -3.67144,-10.37015 -3.85477,-15.694889 -0.17003,-4.941268 2.88106,-9.756028 2.56983,-14.693096 -0.15125,-2.399992 0.27702,-5.523224 -2.14153,-7.012611 -1.00834,-0.620905 -2.64662,0.341003 -3.85478,0 -1.04846,-0.295972 -1.45823,-1.737959 -2.56984,-1.669699 -1.513,0.09286 -2.99816,2.671496 -2.99816,2.671496 l -4.71141,9.35013 -2.99818,-5.676862 -3.85478,3.673294 -0.85657,3.005394 -2.56984,-2.67147 -2.14153,-1.001824 -2.56988,16.362767 9.85109,15.36097 z"
           style="fill:#f0253e;fill-opacity:1;stroke:#000000;stroke-width:1.32074308;stroke-linecap:butt;stroke-linejoin:miter;stroke-miterlimit:4;stroke-dasharray:none;stroke-opacity:1" />
        <path
           sodipodi:nodetypes="cccsssssssscsssscasscc"
           inkscape:connector-curvature="0"
           id="path1717"
           d="m 223.695,141.42649 9.85115,-4.67507 12.4209,-3.33932 v 0 c 0,0 8.62766,-3.88819 11.99269,-6.67869 1.84518,-1.53013 2.63325,-3.68274 4.28307,-5.34293 2.41223,-2.42734 5.38889,-4.47977 8.1379,-6.67869 2.25486,-1.80366 5.69162,-2.99263 6.85294,-5.34296 1.02774,-2.07999 -0.24741,-4.45411 -0.42833,-6.67867 -0.11784,-1.44839 0.85068,-3.286665 -0.42833,-4.341138 -1.48454,-1.22383 -5.58856,0.885304 -6.42465,-0.6679 -1.10501,-2.052773 5.13971,-5.342939 5.13971,-5.342939 0,0 -6.39,0.823773 -9.42279,1.669672 -3.00584,0.838414 -6.42027,1.496518 -8.56618,3.339342 -1.33668,1.147873 -0.17207,4.554833 -2.14154,4.341143 -3.12378,-0.33888 1.88018,-6.124428 -0.85657,-7.346562 -4.65528,-2.078827 -14.56253,5.342939 -14.56253,5.342939 0,0 1.3775,5.065203 2.00452,7.613533 0.66027,2.68346 1.5281,5.34371 1.85028,8.08139 0.34537,2.93479 -0.0498,6.22748 -2.14156,8.68225 -3.41819,4.01152 -15.41914,8.01443 -15.41914,8.01443 z"
           style="fill:#c5253e;fill-opacity:1;stroke:#000000;stroke-width:1.32074308;stroke-linecap:butt;stroke-linejoin:miter;stroke-miterlimit:4;stroke-dasharray:none;stroke-opacity:1" />
        <path
           sodipodi:nodetypes="ccccccccccccccccccccccccccccccccccccccccccssscc"
           inkscape:connector-curvature="0"
           id="path1719"
           d="m 130.752,140.09077 v 0 0 l -5.13971,-12.68951 -1.28494,-7.68045 1.71324,-1.66967 7.28125,0.66781 1.28494,1.6697 v -9.0162 l 6.42465,-9.01621 8.99448,-4.675065 -1.28494,4.341145 5.99632,0.33397 7.70957,-7.012607 9.42279,-9.350157 3.85478,-4.341141 5.99632,1.669672 -1.71324,-5.342966 7.70958,-3.339316 2.14154,-4.341142 5.99631,-2.337546 5.56802,1.669672 9.42282,-3.339344 h 7.70954 l 11.99267,12.689473 v 0 l -4.71141,9.350158 -2.99818,-5.676864 -4.71135,6.678688 -4.71137,-3.673294 -2.56988,16.362764 h -2e-5 l -8.9945,2.00357 -3.85477,-2.33752 -6.85294,4.67509 -13.2776,10.68589 -7.28125,-1.00181 -8.56618,-8.68228 1.71326,9.3501 7.28122,11.01983 -7.38228,-4.98663 -8.89345,1.64734 c 0,0 -2.43447,2.18076 -4.1413,5.33764 -1.30662,2.41665 -2.07251,5.28493 -4.04073,6.54544 -1.59793,1.02336 -4.44859,0.2983 -7.05335,0.88394 -4.46158,1.00312 -8.74991,2.92785 -8.74991,2.92785 z"
           style="fill:#da253e;fill-opacity:1;stroke:#000000;stroke-width:1.32074308;stroke-linecap:butt;stroke-linejoin:miter;stroke-miterlimit:4;stroke-dasharray:none;stroke-opacity:1" />
        <path
           sodipodi:nodetypes="csacscsssscsc"
           inkscape:connector-curvature="0"
           id="path1721"
           d="m 162.01854,107.36526 c 0,0 9.99528,-6.32391 13.70589,-10.351986 1.93716,-2.102863 3.13471,-4.583307 4.28308,-7.012584 0.62807,-1.328643 1.41022,-4.103255 1.41022,-4.103255 0,0 2.02449,0.645776 3.09125,0.645776 1.51672,0 4.39511,-0.918169 4.39511,-0.918169 0,0 2.82301,-0.439086 4.14437,-0.865789 1.33441,-0.430904 2.5017,-1.126098 3.75256,-1.68916 0.81659,-0.367623 1.53901,-0.91249 2.44982,-1.102761 1.38888,-0.290103 2.92477,-0.290103 4.31368,0 1.07663,0.225021 2.89584,1.30353 2.89584,1.30353 0,0 2.37446,0.147501 3.26961,0.683028 1.02501,0.613207 1.86611,13.559219 1.86611,13.559219"
           style="fill:#f0253e;fill-opacity:1;stroke:#000000;stroke-width:1.32074308;stroke-linecap:butt;stroke-linejoin:miter;stroke-miterlimit:4;stroke-dasharray:none;stroke-opacity:1" />
        <path
           sodipodi:nodetypes="cssccssccc"
           inkscape:connector-curvature="0"
           id="path1723"
           d="m 219.41196,157.12138 c 0,0 4.93759,9.70459 6.78185,14.71409 1.31115,3.56138 2.0578,7.23481 3.0286,10.86186 2.52373,9.42899 7.26865,28.33522 7.26865,28.33522 h 3.93721 c 0,0 -4.70739,-21.18491 -7.87439,-31.641 -1.03577,-3.41977 -2.30596,-6.79575 -3.6343,-10.1535 -2.40595,-6.08147 -7.84795,-18.08574 -7.84795,-18.08574 l -0.74951,4.54988 z"
           style="fill:#0d3b1f;fill-opacity:1;stroke:#000000;stroke-width:1.32074308;stroke-linecap:butt;stroke-linejoin:miter;stroke-miterlimit:4;stroke-dasharray:none;stroke-opacity:1" />
        <path
           inkscape:connector-curvature="0"
           id="path1516"
           d="M 110.89862,89.078026 135.92621,46.83505 153.66728,82.273775 Z"
           style="fill:none;stroke:#000000;stroke-width:0.2915439;stroke-linecap:butt;stroke-linejoin:miter;stroke-miterlimit:4;stroke-dasharray:none;stroke-opacity:1" />
        <path
           inkscape:connector-curvature="0"
           id="path1518"
           d="M 153.66728,82.273775 184.39738,50.804181 135.92621,46.83505 Z"
           style="fill:none;stroke:#000000;stroke-width:0.2915439;stroke-linecap:butt;stroke-linejoin:miter;stroke-miterlimit:4;stroke-dasharray:none;stroke-opacity:1" />
        <path
           inkscape:connector-curvature="0"
           id="path1520"
           d="m 184.39738,50.804181 16.15704,-16.44357 -43.71906,65.774279 -3.16808,-17.861115 z"
           style="fill:none;stroke:#000000;stroke-width:0.2915439;stroke-linecap:butt;stroke-linejoin:miter;stroke-miterlimit:4;stroke-dasharray:none;stroke-opacity:1" />
        <path
           inkscape:connector-curvature="0"
           id="path1522"
           d="M 200.55442,34.360611 262.6482,90.212063 304.14966,77.737625 250.60961,46.83505 Z"
           style="fill:none;stroke:#000000;stroke-width:0.2915439;stroke-linecap:butt;stroke-linejoin:miter;stroke-miterlimit:4;stroke-dasharray:none;stroke-opacity:1" />
        <path
           inkscape:connector-curvature="0"
           id="path1524"
           d="m 200.55442,34.360611 1.58402,79.099249 -45.30308,-13.32497 -31.36372,43.94403 75.71639,-30.33556 61.46017,-23.531297 6.0193,51.882297 -66.84586,-28.6345 z"
           style="fill:none;stroke:#000000;stroke-width:0.2915439;stroke-linecap:butt;stroke-linejoin:miter;stroke-miterlimit:4;stroke-dasharray:none;stroke-opacity:1" />
        <path
           inkscape:connector-curvature="0"
           id="path1526"
           d="m 110.89862,89.078026 -34.21493,12.190934 80.15167,-1.13407 -31.36372,43.94403 -48.471158,-43.66052 -5.702474,25.79941 27.24523,30.33555 26.928402,-12.47444 9.82096,56.70199 -36.43257,-44.51105 26.61161,-12.19094 v 0"
           style="fill:none;stroke:#000000;stroke-width:0.2915439;stroke-linecap:butt;stroke-linejoin:miter;stroke-miterlimit:4;stroke-dasharray:none;stroke-opacity:1" />
        <ellipse
           ry="22.452835"
           rx="27.777853"
           cy="239.58435"
           cx="201.22118"
           id="path1673"
           style="opacity:1;fill:#24a474;fill-opacity:1;stroke:none;stroke-width:0.2915439;stroke-miterlimit:4;stroke-dasharray:none;stroke-opacity:1" />
        <path
           inkscape:connector-curvature="0"
           id="path1528"
           d="m 135.2926,200.78091 65.89543,-36.57279 -75.71639,-20.1292 76.6668,-30.61906 -1.2672,50.74826 67.79626,-22.11376 63.99459,-6.80422 -70.01389,-45.078077 41.50146,-12.474438 27.87884,57.552515 -54.49046,60.38758 -8.87054,-53.58336 -67.16264,22.39729 76.03318,30.61906 -16.15707,34.87172 -61.14335,10.48984 77.93404,-45.9286 -77.30042,-30.33555 v 75.98064 z"
           style="fill:none;stroke:#000000;stroke-width:0.2915439;stroke-linecap:butt;stroke-linejoin:miter;stroke-miterlimit:4;stroke-dasharray:none;stroke-opacity:1" />
        <ellipse
           ry="1.4019827"
           rx="1.6434256"
           cy="201.25717"
           cx="134.71841"
           id="path1530"
           style="opacity:1;fill:#000000;fill-opacity:1;stroke:none;stroke-width:0.22615086;stroke-miterlimit:4;stroke-dasharray:none;stroke-opacity:1" />
        <ellipse
           ry="1.4019827"
           rx="1.6434256"
           cy="194.68546"
           cx="277.37961"
           id="path1530-5"
           style="opacity:1;fill:#000000;fill-opacity:1;stroke:none;stroke-width:0.22615086;stroke-miterlimit:4;stroke-dasharray:none;stroke-opacity:1" />
        <ellipse
           ry="1.4019827"
           rx="1.6434256"
           cy="229.84067"
           cx="260.90582"
           id="path1530-0"
           style="opacity:1;fill:#000000;fill-opacity:1;stroke:none;stroke-width:0.22615086;stroke-miterlimit:4;stroke-dasharray:none;stroke-opacity:1" />
        <ellipse
           ry="1.4019827"
           rx="1.6434256"
           cy="240.614"
           cx="200.47528"
           id="path1530-03"
           style="opacity:1;fill:#000000;fill-opacity:1;stroke:none;stroke-width:0.22615086;stroke-miterlimit:4;stroke-dasharray:none;stroke-opacity:1" />
        <ellipse
           ry="1.4019827"
           rx="1.6434256"
           cy="164.40749"
           cx="200.77316"
           id="path1530-03-0"
           style="opacity:1;fill:#000000;fill-opacity:1;stroke:none;stroke-width:0.22615086;stroke-miterlimit:4;stroke-dasharray:none;stroke-opacity:1" />
        <ellipse
           ry="1.4019827"
           rx="1.6434256"
           cy="142.15509"
           cx="268.42566"
           id="path1530-03-2"
           style="opacity:1;fill:#000000;fill-opacity:1;stroke:none;stroke-width:0.22615086;stroke-miterlimit:4;stroke-dasharray:none;stroke-opacity:1" />
        <ellipse
           ry="1.4019827"
           rx="1.6434256"
           cy="113.28717"
           cx="201.66928"
           id="path1530-03-5"
           style="opacity:1;fill:#000000;fill-opacity:1;stroke:none;stroke-width:0.22615086;stroke-miterlimit:4;stroke-dasharray:none;stroke-opacity:1" />
        <ellipse
           ry="1.4019827"
           rx="1.6434256"
           cy="144.15985"
           cx="124.83212"
           id="path1530-03-7"
           style="opacity:1;fill:#000000;fill-opacity:1;stroke:none;stroke-width:0.22615086;stroke-miterlimit:4;stroke-dasharray:none;stroke-opacity:1" />
        <ellipse
           ry="1.4019827"
           rx="1.6434256"
           cy="156.18811"
           cx="98.398331"
           id="path1530-03-75"
           style="opacity:1;fill:#000000;fill-opacity:1;stroke:none;stroke-width:0.22615086;stroke-miterlimit:4;stroke-dasharray:none;stroke-opacity:1" />
        <ellipse
           ry="1.4019827"
           rx="1.6434256"
           cy="90.03244"
           cx="262.82532"
           id="path1530-03-04"
           style="opacity:1;fill:#000000;fill-opacity:1;stroke:none;stroke-width:0.22615086;stroke-miterlimit:4;stroke-dasharray:none;stroke-opacity:1" />
        <ellipse
           ry="1.4019827"
           rx="1.6434256"
           cy="47.312138"
           cx="250.28006"
           id="path1530-03-6"
           style="opacity:1;fill:#000000;fill-opacity:1;stroke:none;stroke-width:0.22615086;stroke-miterlimit:4;stroke-dasharray:none;stroke-opacity:1" />
        <ellipse
           ry="1.4019827"
           rx="1.6434256"
           cy="34.81509"
           cx="201.04843"
           id="path1530-03-1"
           style="opacity:1;fill:#000000;fill-opacity:1;stroke:none;stroke-width:0.22615086;stroke-miterlimit:4;stroke-dasharray:none;stroke-opacity:1" />
        <ellipse
           ry="1.4019827"
           rx="1.6434256"
           cy="78.871643"
           cx="303.51608"
           id="path1530-03-9"
           style="opacity:1;fill:#000000;fill-opacity:1;stroke:none;stroke-width:0.22615086;stroke-miterlimit:4;stroke-dasharray:none;stroke-opacity:1" />
        <ellipse
           ry="1.4019827"
           rx="1.6434256"
           cy="50.940434"
           cx="183.74803"
           id="path1530-03-77"
           style="opacity:1;fill:#000000;fill-opacity:1;stroke:none;stroke-width:0.22615086;stroke-miterlimit:4;stroke-dasharray:none;stroke-opacity:1" />
        <ellipse
           ry="1.4019827"
           rx="1.6434256"
           cy="81.61264"
           cx="153.50601"
           id="path1530-03-09"
           style="opacity:1;fill:#000000;fill-opacity:1;stroke:none;stroke-width:0.22615086;stroke-miterlimit:4;stroke-dasharray:none;stroke-opacity:1" />
        <ellipse
           ry="1.4019827"
           rx="1.6434256"
           cy="99.454628"
           cx="156.86624"
           id="path1530-03-61"
           style="opacity:1;fill:#000000;fill-opacity:1;stroke:none;stroke-width:0.22615086;stroke-miterlimit:4;stroke-dasharray:none;stroke-opacity:1" />
        <ellipse
           ry="1.4019827"
           rx="1.6434256"
           cy="101.83596"
           cx="76.366882"
           id="path1530-03-58"
           style="opacity:1;fill:#000000;fill-opacity:1;stroke:none;stroke-width:0.22615086;stroke-miterlimit:4;stroke-dasharray:none;stroke-opacity:1" />
        <ellipse
           ry="1.4019827"
           rx="1.6434256"
           cy="89.078026"
           cx="109.63141"
           id="path1530-03-18"
           style="opacity:1;fill:#000000;fill-opacity:1;stroke:none;stroke-width:0.22615086;stroke-miterlimit:4;stroke-dasharray:none;stroke-opacity:1" />
        <ellipse
           ry="1.4019827"
           rx="1.6434256"
           cy="47.118572"
           cx="135.29259"
           id="path1530-03-18-4"
           style="opacity:1;fill:#000000;fill-opacity:1;stroke:none;stroke-width:0.22615086;stroke-miterlimit:4;stroke-dasharray:none;stroke-opacity:1" />
        <ellipse
           ry="1.335778"
           rx="1.5558052"
           cy="121.99596"
           cx="71.889091"
           id="path1530-03-18-47"
           style="opacity:1;fill:#000000;fill-opacity:1;stroke:none;stroke-width:0.2147814;stroke-miterlimit:4;stroke-dasharray:none;stroke-opacity:1" />
        <path
           style="opacity:0;fill:#f0253e;fill-opacity:1;stroke:#000000;stroke-width:0.71428573;stroke-opacity:0"
           d="m 296.81728,258.18083 c -4.2227,-0.6685 -7.77966,-1.3498 -7.90436,-1.51401 -0.1247,-0.16421 -5.06932,-5.44625 -10.98804,-11.73787 l -10.7613,-11.43931 7.75369,-5.54601 7.75369,-5.546 24.4834,7.60588 c 13.46587,4.18323 24.89278,7.82579 25.39312,8.09457 0.5896,0.31673 -3.432,4.17872 -11.42857,10.975 -13.91398,11.82548 -11.90074,11.07096 -24.30163,9.10775 z"
           id="path899"
           inkscape:connector-curvature="0"
           transform="matrix(0.35013768,0,0,0.33225913,69.647279,29.934977)" />
        <path
           style="opacity:0;fill:#f0253e;fill-opacity:1;stroke:#000000;stroke-width:0.71428573;stroke-opacity:0"
           d="m 296.81728,258.18083 c -4.2227,-0.6685 -7.77966,-1.3498 -7.90436,-1.51401 -0.1247,-0.16421 -5.06932,-5.44625 -10.98804,-11.73787 l -10.7613,-11.43931 7.75369,-5.54601 7.75369,-5.546 24.4834,7.60588 c 13.46587,4.18323 24.89278,7.82579 25.39312,8.09457 0.5896,0.31673 -3.432,4.17872 -11.42857,10.975 -13.91398,11.82548 -11.90074,11.07096 -24.30163,9.10775 z"
           id="path901"
           inkscape:connector-curvature="0"
           transform="matrix(0.35013768,0,0,0.33225913,69.647279,29.934977)" />
        <path
           style="opacity:0;fill:#f0253e;fill-opacity:1;stroke:#000000;stroke-width:0.71428573;stroke-opacity:0"
           d="m 309.13777,229.16445 c -13.16072,-4.09401 -24.18963,-7.52963 -24.50871,-7.63473 -0.31907,-0.10509 1.6095,-1.93514 4.28572,-4.06678 9.14766,-7.28622 13.21573,-11.09597 17.08341,-15.99861 4.37491,-5.54561 10.79177,-17.85487 13.19069,-25.30329 l 1.60547,-4.98481 2.20271,0.63173 c 3.4781,0.99751 8.25536,0.7443 13.65506,-0.72375 2.74211,-0.74552 7.71779,-1.93303 11.05707,-2.63891 4.19691,-0.88718 8.56325,-2.54619 14.14221,-5.37338 4.43893,-2.24947 9.28928,-4.2958 10.77855,-4.54742 l 2.70777,-0.45747 0.50207,30.1319 c 0.27614,16.57255 0.35423,30.27975 0.17353,30.46045 -0.1807,0.18069 -2.0427,-0.76131 -4.13777,-2.09334 -2.09506,-1.33203 -4.17595,-2.64197 -4.62418,-2.91099 -0.9011,-0.54081 -19.22336,12.35557 -26.88194,18.92124 -2.66188,2.28201 -5.39402,4.12272 -6.07143,4.09046 -0.67742,-0.0323 -11.99952,-3.40829 -25.16023,-7.5023 z"
           id="path903"
           inkscape:connector-curvature="0"
           transform="matrix(0.35013768,0,0,0.33225913,69.647279,29.934977)" />
        <path
           style="opacity:0;fill:#f0253e;fill-opacity:1;stroke:#000000;stroke-width:0.71428573;stroke-opacity:0"
           d="m 309.13777,229.16445 c -13.16072,-4.09401 -24.18963,-7.52963 -24.50871,-7.63473 -0.31907,-0.10509 1.6095,-1.93514 4.28572,-4.06678 9.14766,-7.28622 13.21573,-11.09597 17.08341,-15.99861 4.37491,-5.54561 10.79177,-17.85487 13.19069,-25.30329 l 1.60547,-4.98481 2.20271,0.63173 c 3.4781,0.99751 8.25536,0.7443 13.65506,-0.72375 2.74211,-0.74552 7.71779,-1.93303 11.05707,-2.63891 4.19691,-0.88718 8.56325,-2.54619 14.14221,-5.37338 4.43893,-2.24947 9.28928,-4.2958 10.77855,-4.54742 l 2.70777,-0.45747 0.50207,30.1319 c 0.27614,16.57255 0.35423,30.27975 0.17353,30.46045 -0.1807,0.18069 -2.0427,-0.76131 -4.13777,-2.09334 -2.09506,-1.33203 -4.17595,-2.64197 -4.62418,-2.91099 -0.9011,-0.54081 -19.22336,12.35557 -26.88194,18.92124 -2.66188,2.28201 -5.39402,4.12272 -6.07143,4.09046 -0.67742,-0.0323 -11.99952,-3.40829 -25.16023,-7.5023 z"
           id="path905"
           inkscape:connector-curvature="0"
           transform="matrix(0.35013768,0,0,0.33225913,69.647279,29.934977)" />
        <path
           style="opacity:0;fill:#f0253e;fill-opacity:1;stroke:#000000;stroke-width:0.71428573;stroke-opacity:0"
           d="m 296.81728,258.18083 c -4.2227,-0.6685 -7.77966,-1.3498 -7.90436,-1.51401 -0.1247,-0.16421 -5.06932,-5.44625 -10.98804,-11.73787 l -10.7613,-11.43931 7.75369,-5.54601 7.75369,-5.546 24.4834,7.60588 c 13.46587,4.18323 24.89278,7.82579 25.39312,8.09457 0.5896,0.31673 -3.432,4.17872 -11.42857,10.975 -13.91398,11.82548 -11.90074,11.07096 -24.30163,9.10775 z"
           id="path907"
           inkscape:connector-curvature="0"
           transform="matrix(0.35013768,0,0,0.33225913,69.647279,29.934977)" />
        <path
           style="opacity:0;fill:#f0253e;fill-opacity:1;stroke:#000000;stroke-width:0.71428573;stroke-opacity:0"
           d="m 296.81728,258.18083 c -4.2227,-0.6685 -7.77966,-1.3498 -7.90436,-1.51401 -0.1247,-0.16421 -5.06932,-5.44625 -10.98804,-11.73787 l -10.7613,-11.43931 7.75369,-5.54601 7.75369,-5.546 24.4834,7.60588 c 13.46587,4.18323 24.89278,7.82579 25.39312,8.09457 0.5896,0.31673 -3.432,4.17872 -11.42857,10.975 -13.91398,11.82548 -11.90074,11.07096 -24.30163,9.10775 z"
           id="path909"
           inkscape:connector-curvature="0"
           transform="matrix(0.35013768,0,0,0.33225913,69.647279,29.934977)" />
        <path
           style="opacity:0;fill:#f0253e;fill-opacity:1;stroke:#000000;stroke-width:0.71428573;stroke-opacity:0"
           d="m 296.81728,258.18083 c -4.2227,-0.6685 -7.77966,-1.3498 -7.90436,-1.51401 -0.1247,-0.16421 -5.06932,-5.44625 -10.98804,-11.73787 l -10.7613,-11.43931 7.75369,-5.54601 7.75369,-5.546 24.4834,7.60588 c 13.46587,4.18323 24.89278,7.82579 25.39312,8.09457 0.5896,0.31673 -3.432,4.17872 -11.42857,10.975 -13.91398,11.82548 -11.90074,11.07096 -24.30163,9.10775 z"
           id="path911"
           inkscape:connector-curvature="0"
           transform="matrix(0.35013768,0,0,0.33225913,69.647279,29.934977)" />
        <path
           style="opacity:0;fill:#f0253e;fill-opacity:1;stroke:#000000;stroke-width:0.25253814;stroke-opacity:0"
           d="m 298.04129,258.50045 -8.82096,-1.30486 -11.06641,-11.81934 c -6.08653,-6.50064 -11.06173,-11.89461 -11.05599,-11.9866 0.006,-0.092 1.33636,-1.07638 2.95693,-2.18755 1.62057,-1.11117 5.09571,-3.58735 7.72252,-5.50262 l 4.77602,-3.48233 8.24009,2.55808 c 4.53204,1.40694 15.91093,4.9339 25.28641,7.83768 9.37547,2.90379 17.26017,5.37076 17.52154,5.48216 0.3923,0.16721 -1.74304,2.08413 -12.2381,10.98633 -11.74731,9.96438 -12.78124,10.7815 -13.6072,10.75384 -0.49164,-0.0165 -4.86332,-0.61712 -9.71485,-1.33479 z"
           id="path913"
           inkscape:connector-curvature="0"
           transform="matrix(0.35013768,0,0,0.33225913,69.647279,29.934977)" />
        <path
           style="opacity:0;fill:#f0253e;fill-opacity:1;stroke:#000000;stroke-width:0.25253814;stroke-opacity:0"
           d="m 298.04129,258.50045 -8.82096,-1.30486 -11.06641,-11.81934 c -6.08653,-6.50064 -11.06173,-11.89461 -11.05599,-11.9866 0.006,-0.092 1.33636,-1.07638 2.95693,-2.18755 1.62057,-1.11117 5.09571,-3.58735 7.72252,-5.50262 l 4.77602,-3.48233 8.24009,2.55808 c 4.53204,1.40694 15.91093,4.9339 25.28641,7.83768 9.37547,2.90379 17.26017,5.37076 17.52154,5.48216 0.3923,0.16721 -1.74304,2.08413 -12.2381,10.98633 -11.74731,9.96438 -12.78124,10.7815 -13.6072,10.75384 -0.49164,-0.0165 -4.86332,-0.61712 -9.71485,-1.33479 z"
           id="path915"
           inkscape:connector-curvature="0"
           transform="matrix(0.35013768,0,0,0.33225913,69.647279,29.934977)" />
        <path
           style="opacity:0;fill:#f0253e;fill-opacity:1;stroke:#000000;stroke-width:0.25253814;stroke-opacity:0"
           d="m 298.04129,258.50045 -8.82096,-1.30486 -11.06641,-11.81934 c -6.08653,-6.50064 -11.06173,-11.89461 -11.05599,-11.9866 0.006,-0.092 1.33636,-1.07638 2.95693,-2.18755 1.62057,-1.11117 5.09571,-3.58735 7.72252,-5.50262 l 4.77602,-3.48233 8.24009,2.55808 c 4.53204,1.40694 15.91093,4.9339 25.28641,7.83768 9.37547,2.90379 17.26017,5.37076 17.52154,5.48216 0.3923,0.16721 -1.74304,2.08413 -12.2381,10.98633 -11.74731,9.96438 -12.78124,10.7815 -13.6072,10.75384 -0.49164,-0.0165 -4.86332,-0.61712 -9.71485,-1.33479 z"
           id="path917"
           inkscape:connector-curvature="0"
           transform="matrix(0.35013768,0,0,0.33225913,69.647279,29.934977)" />
        <path
           style="opacity:0;fill:#f0253e;fill-opacity:1;stroke:#000000;stroke-width:0.25253814;stroke-opacity:0"
           d="m 322.77216,233.59039 c -6.66701,-2.07588 -18.08805,-5.61243 -25.38009,-7.859 -7.29204,-2.24658 -13.34525,-4.1582 -13.45159,-4.24804 -0.10634,-0.0899 1.25477,-1.29234 3.02468,-2.67218 15.69435,-12.23552 20.56447,-17.77602 26.84528,-30.54055 3.28401,-6.67412 4.29493,-9.11095 5.65735,-13.63706 0.50171,-1.66675 0.96004,-3.16247 1.01851,-3.32381 0.0761,-0.20991 0.77545,-0.12227 2.45877,0.30812 4.67367,1.19495 7.47416,1.03364 13.9634,-0.80427 1.66995,-0.47297 4.45681,-1.14564 6.19301,-1.49482 5.08808,-1.02329 8.57498,-1.8905 10.68797,-2.65815 1.08647,-0.39471 5.12076,-2.32572 8.9651,-4.29112 7.25404,-3.70861 8.7373,-4.24283 11.85106,-4.26839 l 1.07329,-0.009 -5.1e-4,4.10375 c -2.5e-4,2.25705 0.17661,15.29749 0.39317,28.97875 0.21656,13.68125 0.35887,25.70685 0.31625,26.72355 l -0.0775,1.84856 -4.76995,-3.05992 c -2.62348,-1.68294 -4.92595,-3.02619 -5.11662,-2.98497 -0.19067,0.0412 -4.85485,3.31374 -10.36486,7.27228 -6.7606,4.85699 -11.78919,8.69597 -15.46461,11.80615 -2.99553,2.53486 -5.50353,4.6033 -5.57332,4.59654 -0.0699,-0.007 -5.58179,-1.71072 -12.24879,-3.78661 z"
           id="path919"
           inkscape:connector-curvature="0"
           transform="matrix(0.35013768,0,0,0.33225913,69.647279,29.934977)" />
        <path
           style="opacity:0;fill:#f0253e;fill-opacity:1;stroke:#000000;stroke-width:0.25253814;stroke-opacity:0"
           d="m 322.77216,233.59039 c -6.66701,-2.07588 -18.08805,-5.61243 -25.38009,-7.859 -7.29204,-2.24658 -13.34525,-4.1582 -13.45159,-4.24804 -0.10634,-0.0899 1.25477,-1.29234 3.02468,-2.67218 15.69435,-12.23552 20.56447,-17.77602 26.84528,-30.54055 3.28401,-6.67412 4.29493,-9.11095 5.65735,-13.63706 0.50171,-1.66675 0.96004,-3.16247 1.01851,-3.32381 0.0761,-0.20991 0.77545,-0.12227 2.45877,0.30812 4.67367,1.19495 7.47416,1.03364 13.9634,-0.80427 1.66995,-0.47297 4.45681,-1.14564 6.19301,-1.49482 5.08808,-1.02329 8.57498,-1.8905 10.68797,-2.65815 1.08647,-0.39471 5.12076,-2.32572 8.9651,-4.29112 7.25404,-3.70861 8.7373,-4.24283 11.85106,-4.26839 l 1.07329,-0.009 -5.1e-4,4.10375 c -2.5e-4,2.25705 0.17661,15.29749 0.39317,28.97875 0.21656,13.68125 0.35887,25.70685 0.31625,26.72355 l -0.0775,1.84856 -4.76995,-3.05992 c -2.62348,-1.68294 -4.92595,-3.02619 -5.11662,-2.98497 -0.19067,0.0412 -4.85485,3.31374 -10.36486,7.27228 -6.7606,4.85699 -11.78919,8.69597 -15.46461,11.80615 -2.99553,2.53486 -5.50353,4.6033 -5.57332,4.59654 -0.0699,-0.007 -5.58179,-1.71072 -12.24879,-3.78661 z"
           id="path921"
           inkscape:connector-curvature="0"
           transform="matrix(0.35013768,0,0,0.33225913,69.647279,29.934977)" />
        <path
           style="opacity:0;fill:#f0253e;fill-opacity:1;stroke:#000000;stroke-width:0.25253814;stroke-opacity:0"
           d="m 322.77216,233.59039 c -6.66701,-2.07588 -18.08805,-5.61243 -25.38009,-7.859 -7.29204,-2.24658 -13.34525,-4.1582 -13.45159,-4.24804 -0.10634,-0.0899 1.25477,-1.29234 3.02468,-2.67218 15.69435,-12.23552 20.56447,-17.77602 26.84528,-30.54055 3.28401,-6.67412 4.29493,-9.11095 5.65735,-13.63706 0.50171,-1.66675 0.96004,-3.16247 1.01851,-3.32381 0.0761,-0.20991 0.77545,-0.12227 2.45877,0.30812 4.67367,1.19495 7.47416,1.03364 13.9634,-0.80427 1.66995,-0.47297 4.45681,-1.14564 6.19301,-1.49482 5.08808,-1.02329 8.57498,-1.8905 10.68797,-2.65815 1.08647,-0.39471 5.12076,-2.32572 8.9651,-4.29112 7.25404,-3.70861 8.7373,-4.24283 11.85106,-4.26839 l 1.07329,-0.009 -5.1e-4,4.10375 c -2.5e-4,2.25705 0.17661,15.29749 0.39317,28.97875 0.21656,13.68125 0.35887,25.70685 0.31625,26.72355 l -0.0775,1.84856 -4.76995,-3.05992 c -2.62348,-1.68294 -4.92595,-3.02619 -5.11662,-2.98497 -0.19067,0.0412 -4.85485,3.31374 -10.36486,7.27228 -6.7606,4.85699 -11.78919,8.69597 -15.46461,11.80615 -2.99553,2.53486 -5.50353,4.6033 -5.57332,4.59654 -0.0699,-0.007 -5.58179,-1.71072 -12.24879,-3.78661 z"
           id="path923"
           inkscape:connector-curvature="0"
           transform="matrix(0.35013768,0,0,0.33225913,69.647279,29.934977)" />
        <path
           style="opacity:0;fill:#f0253e;fill-opacity:1;stroke:#000000;stroke-width:0.34108129;stroke-opacity:0"
           id="path929"
           d="m 173.5689,109.88794 c 0.41193,-0.0762 0.83514,-0.0788 1.2533,-0.0754 0.60272,-0.003 1.19538,0.12155 1.76929,0.28624 0.46857,0.11388 0.91924,0.27788 1.37856,0.42102 0.30084,0.0982 0.61568,0.14174 0.92715,0.19697 0.16088,0.0564 0.44176,0.0623 0.52717,0.23566 0.0211,0.0429 0.0224,0.0923 0.0336,0.13849 -0.0136,0.0576 -0.0185,0.11764 -0.0407,0.17272 -0.0452,0.11173 -0.19981,0.33983 -0.26129,0.43178 -0.17749,0.26546 -0.35965,0.52833 -0.54112,0.79135 -0.10357,0.14639 -0.21977,0.32571 -0.3506,0.45442 -0.3612,0.3553 -1.37462,0.76945 -1.52117,0.83119 -0.13459,0.0567 -0.47608,-0.0262 -0.59728,-0.0479 -0.8595,-0.28672 -1.57343,-0.84925 -2.26344,-1.39694 -0.46859,-0.37467 -0.93832,-0.74789 -1.33407,-1.19345 -0.22126,-0.27205 -0.46304,-0.52739 -0.71287,-0.7758 0,0 1.09278,-0.63071 1.09278,-0.63071 v 0 c 0.24624,0.25484 0.49172,0.51133 0.71278,0.7865 0.36381,0.45197 0.80206,0.8395 1.25153,1.21426 0.68184,0.54093 1.39035,1.09788 2.26685,1.31859 0.0999,0.01 0.19917,0.0306 0.29956,0.0295 0.0913,-9.9e-4 0.33998,-0.0929 0.27143,-0.0356 -0.24592,0.2055 -0.5506,0.33736 -0.82894,0.50147 -0.0737,0.0435 0.14999,-0.0849 0.21495,-0.13947 0.15127,-0.1272 0.25682,-0.29197 0.37086,-0.44705 0.29184,-0.41915 0.5895,-0.84057 0.82678,-1.28989 -7e-4,-0.0245 0.007,-0.0508 -0.002,-0.0736 -0.0444,-0.10751 -0.3711,-0.14222 -0.47137,-0.17601 -0.30995,-0.0593 -0.62194,-0.11162 -0.91771,-0.22239 -0.45264,-0.1464 -0.89967,-0.30768 -1.3613,-0.42733 -0.56617,-0.15737 -1.14772,-0.2742 -1.74117,-0.26258 -0.42409,0.008 -0.87992,0.004 -1.27693,0.1623 0,0 1.02536,-0.77832 1.02536,-0.77832 z"
           inkscape:connector-curvature="0" />
        <path
           style="opacity:0;fill:#f0253e;fill-opacity:1;stroke:#000000;stroke-width:0.34108129;stroke-opacity:0"
           id="path931"
           d="m 173.17399,113.89368 c -0.58081,-0.76375 -1.11017,-1.55739 -1.60424,-2.37385 -0.38713,-0.63835 -0.70427,-1.30921 -0.93441,-2.01193 0,0 1.086,-0.56058 1.086,-0.56058 v 0 c 0.18124,0.71029 0.46143,1.39091 0.84063,2.02862 0.49793,0.80554 1.02835,1.6008 1.71424,2.27679 0,0 -1.10222,0.64095 -1.10222,0.64095 z"
           inkscape:connector-curvature="0" />
        <path
           style="opacity:0;fill:#f0253e;fill-opacity:1;stroke:#000000;stroke-width:0.34108129;stroke-opacity:0"
           id="path933"
           d="m 173.55606,112.3549 c -0.3795,-1.10616 -0.72664,-2.22215 -1.08573,-3.33441 -0.28416,-0.8541 -0.54924,-1.71337 -0.79739,-2.57744 0,0 1.03107,-0.52796 1.03107,-0.52796 v 0 c 0.19397,0.88092 0.42232,1.75456 0.71793,2.61044 0.36377,1.09252 0.71914,2.19916 1.26419,3.22521 0,0 -1.13007,0.60416 -1.13007,0.60416 z"
           inkscape:connector-curvature="0" />
        <path
           style="opacity:0;fill:#f0253e;fill-opacity:1;stroke:#000000;stroke-width:0.34108129;stroke-opacity:0"
           id="path935"
           d="m 175.98162,111.71434 c 0.54921,-0.2155 1.09247,-0.44401 1.64359,-0.65519 0.3535,-0.11883 0.18199,-0.0651 0.51401,-0.16275 0,0 -0.99477,0.73039 -0.99477,0.73039 v 0 c -0.31592,0.0939 -0.15223,0.0419 -0.4905,0.15752 -0.56935,0.21742 -1.13742,0.44412 -1.68484,0.70737 0,0 1.01251,-0.77734 1.01251,-0.77734 z"
           inkscape:connector-curvature="0" />
        <ellipse
           style="opacity:0;fill:#f0253e;fill-opacity:1;stroke:#000000;stroke-width:0.34108129;stroke-opacity:0"
           id="path937"
           cx="173.25351"
           cy="110.6683"
           rx="2.8923004"
           ry="3.0561821" />
        <path
           style="opacity:0;fill:#f0253e;fill-opacity:1;stroke:#000000;stroke-width:0.71428573;stroke-opacity:0"
           d="m 296.34987,258.1409 -7.0093,-1.10635 -11.01306,-11.75407 -11.01305,-11.75408 1.59379,-1.21082 c 0.87658,-0.66596 4.32593,-3.17589 7.66522,-5.57764 l 6.07143,-4.36681 24.64286,7.68534 c 13.55357,4.22694 25.0508,7.8224 25.54939,7.9899 0.4986,0.16751 -4.59083,4.96322 -11.30984,10.65714 -13.95661,11.8273 -12.79491,11.39186 -25.17744,9.43739 z"
           id="path963"
           inkscape:connector-curvature="0"
           transform="matrix(0.35013768,0,0,0.33225913,69.647279,29.934977)" />
        <path
           style="opacity:0;fill:#f0253e;fill-opacity:1;stroke:#000000;stroke-width:0.71428573;stroke-opacity:0"
           d="m 296.34987,258.1409 -7.0093,-1.10635 -11.01306,-11.75407 -11.01305,-11.75408 1.59379,-1.21082 c 0.87658,-0.66596 4.32593,-3.17589 7.66522,-5.57764 l 6.07143,-4.36681 24.64286,7.68534 c 13.55357,4.22694 25.0508,7.8224 25.54939,7.9899 0.4986,0.16751 -4.59083,4.96322 -11.30984,10.65714 -13.95661,11.8273 -12.79491,11.39186 -25.17744,9.43739 z"
           id="path965"
           inkscape:connector-curvature="0"
           transform="matrix(0.35013768,0,0,0.33225913,69.647279,29.934977)" />
        <path
           style="opacity:0;fill:#f0253e;fill-opacity:1;stroke:#000000;stroke-width:0.71428573;stroke-opacity:0"
           d="m 296.34987,258.1409 -7.0093,-1.10635 -11.01306,-11.75407 -11.01305,-11.75408 1.59379,-1.21082 c 0.87658,-0.66596 4.32593,-3.17589 7.66522,-5.57764 l 6.07143,-4.36681 24.64286,7.68534 c 13.55357,4.22694 25.0508,7.8224 25.54939,7.9899 0.4986,0.16751 -4.59083,4.96322 -11.30984,10.65714 -13.95661,11.8273 -12.79491,11.39186 -25.17744,9.43739 z"
           id="path967"
           inkscape:connector-curvature="0"
           transform="matrix(0.35013768,0,0,0.33225913,69.647279,29.934977)" />
        <path
           style="opacity:0;fill:#f0253e;fill-opacity:1;stroke:#000000;stroke-width:0.71428573;stroke-opacity:0"
           d="m 296.34987,258.1409 -7.0093,-1.10635 -11.01306,-11.75407 -11.01305,-11.75408 1.59379,-1.21082 c 0.87658,-0.66596 4.32593,-3.17589 7.66522,-5.57764 l 6.07143,-4.36681 24.64286,7.68534 c 13.55357,4.22694 25.0508,7.8224 25.54939,7.9899 0.4986,0.16751 -4.59083,4.96322 -11.30984,10.65714 -13.95661,11.8273 -12.79491,11.39186 -25.17744,9.43739 z"
           id="path969"
           inkscape:connector-curvature="0"
           transform="matrix(0.35013768,0,0,0.33225913,69.647279,29.934977)" />
        <path
           style="opacity:0;fill:#f0253e;fill-opacity:1;stroke:#000000;stroke-width:0.71428573;stroke-opacity:0"
           d="m 296.34987,258.1409 -7.0093,-1.10635 -11.01306,-11.75407 -11.01305,-11.75408 1.59379,-1.21082 c 0.87658,-0.66596 4.32593,-3.17589 7.66522,-5.57764 l 6.07143,-4.36681 24.64286,7.68534 c 13.55357,4.22694 25.0508,7.8224 25.54939,7.9899 0.4986,0.16751 -4.59083,4.96322 -11.30984,10.65714 -13.95661,11.8273 -12.79491,11.39186 -25.17744,9.43739 z"
           id="path971"
           inkscape:connector-curvature="0"
           transform="matrix(0.35013768,0,0,0.33225913,69.647279,29.934977)" />
        <path
           style="opacity:1;fill:#f0253e;fill-opacity:1;stroke:#000000;stroke-width:0.71428573;stroke-opacity:0"
           d="m 296.34987,258.1409 -7.0093,-1.10635 -11.01306,-11.75407 -11.01305,-11.75408 1.59379,-1.21082 c 0.87658,-0.66596 4.32593,-3.17589 7.66522,-5.57764 l 6.07143,-4.36681 24.64286,7.68534 c 13.55357,4.22694 25.0508,7.8224 25.54939,7.9899 0.4986,0.16751 -4.59083,4.96322 -11.30984,10.65714 -13.95661,11.8273 -12.79491,11.39186 -25.17744,9.43739 z"
           id="path973"
           inkscape:connector-curvature="0"
           transform="matrix(0.35013768,0,0,0.33225913,69.647279,29.934977)" />
        <path
           style="opacity:1;fill:#f0253e;fill-opacity:1;stroke:#000000;stroke-width:0.71428573;stroke-opacity:0"
           d="m 331.93061,236.21794 c -35.21492,-10.8552 -45.87914,-14.19759 -46.67118,-14.62776 -0.66158,-0.35931 1.02439,-2.09971 5.46281,-5.63917 3.53084,-2.8157 8.99868,-7.84397 12.15076,-11.17392 4.93059,-5.20883 6.42559,-7.44333 10.70378,-15.9984 2.735,-5.46917 5.38875,-11.56719 5.89722,-13.55114 l 0.9245,-3.60719 5.40891,0.41465 c 3.93669,0.3018 6.67263,0.0818 10.05177,-0.80841 2.55358,-0.67269 7.53572,-1.82741 11.07143,-2.56604 4.58991,-0.95887 8.88012,-2.55969 15,-5.59701 7.09552,-3.52154 12.89533,-5.65088 13.29864,-4.88246 0.12685,0.24168 1.08471,60.84654 0.96501,61.05683 -0.0569,0.10001 -2.09503,-1.10535 -4.5291,-2.67857 -2.43408,-1.57322 -4.73938,-2.8604 -5.12288,-2.8604 -0.99711,0 -20.94069,14.46387 -26.04024,18.88541 -5.51618,4.78278 -5.23291,4.6627 -8.57143,3.63358 z"
           id="path975"
           inkscape:connector-curvature="0"
           transform="matrix(0.35013768,0,0,0.33225913,69.647279,29.934977)" />
        <path
           style="opacity:1;fill:#f0253e;fill-opacity:1;stroke:#000000;stroke-width:0.71428573;stroke-opacity:0"
           d="m 378.4492,212.0918 c -0.22443,-4.41964 -0.59728,-18.42005 -0.82856,-31.11201 l -0.42052,-23.0763 2.72239,0.49574 c 1.49731,0.27266 4.49025,1.36963 6.65096,2.43771 2.16071,1.06808 5.52805,2.15279 7.48297,2.41046 1.95491,0.25768 3.94423,0.86647 4.42071,1.35288 1.03531,1.05691 2.69137,12.63438 3.87776,27.10933 0.69001,8.41871 0.67844,11.78757 -0.0581,16.92625 l -0.91958,6.41558 -10.65145,2.53804 c -5.85831,1.39592 -10.9253,2.53804 -11.25999,2.53804 -0.33469,0 -0.79215,-3.61607 -1.01658,-8.03572 z"
           id="path977"
           inkscape:connector-curvature="0"
           transform="matrix(0.35013768,0,0,0.33225913,69.647279,29.934977)" />
      </g>
    </g>
  </g>
</svg>
