<?xml version="1.0" encoding="UTF-8" standalone="no"?>
<!-- Generator: Adobe Illustrator 16.0.0, SVG Export Plug-In . SVG Version: 6.00 Build 0)  -->

<svg
   xmlns:dc="http://purl.org/dc/elements/1.1/"
   xmlns:cc="http://creativecommons.org/ns#"
   xmlns:rdf="http://www.w3.org/1999/02/22-rdf-syntax-ns#"
   xmlns:svg="http://www.w3.org/2000/svg"
   xmlns="http://www.w3.org/2000/svg"
   xmlns:sodipodi="http://sodipodi.sourceforge.net/DTD/sodipodi-0.dtd"
   xmlns:inkscape="http://www.inkscape.org/namespaces/inkscape"
   version="1.1"
   id="Capa_1"
   x="0px"
   y="0px"
   width="510px"
   height="510px"
   viewBox="0 0 510 510"
   style="enable-background:new 0 0 510 510;"
   xml:space="preserve"
   sodipodi:docname="shopping-cart.svg"
   inkscape:version="0.92.4 (unknown)"><metadata
   id="metadata42"><rdf:RDF><cc:Work
       rdf:about=""><dc:format>image/svg+xml</dc:format><dc:type
         rdf:resource="http://purl.org/dc/dcmitype/StillImage" /></cc:Work></rdf:RDF></metadata><defs
   id="defs40" /><sodipodi:namedview
   pagecolor="#ffffff"
   bordercolor="#666666"
   borderopacity="1"
   objecttolerance="10"
   gridtolerance="10"
   guidetolerance="10"
   inkscape:pageopacity="0"
   inkscape:pageshadow="2"
   inkscape:window-width="768"
   inkscape:window-height="480"
   id="namedview38"
   showgrid="false"
   inkscape:zoom="0.4627451"
   inkscape:cx="255"
   inkscape:cy="255"
   inkscape:window-x="0"
   inkscape:window-y="0"
   inkscape:window-maximized="0"
   inkscape:current-layer="Capa_1" />
<g
   id="g5"
   style="fill:#ffffff;fill-opacity:1">
	<g
   id="shopping-cart"
   style="fill:#ffffff;fill-opacity:1">
		<path
   d="M153,408c-28.05,0-51,22.95-51,51s22.95,51,51,51s51-22.95,51-51S181.05,408,153,408z M0,0v51h51l91.8,193.8L107.1,306    c-2.55,7.65-5.1,17.85-5.1,25.5c0,28.05,22.95,51,51,51h306v-51H163.2c-2.55,0-5.1-2.55-5.1-5.1v-2.551l22.95-43.35h188.7    c20.4,0,35.7-10.2,43.35-25.5L504.9,89.25c5.1-5.1,5.1-7.65,5.1-12.75c0-15.3-10.2-25.5-25.5-25.5H107.1L84.15,0H0z M408,408    c-28.05,0-51,22.95-51,51s22.95,51,51,51s51-22.95,51-51S436.05,408,408,408z"
   id="path2"
   style="fill:#ffffff;fill-opacity:1" />
	</g>
</g>
<g
   id="g7"
   style="fill:#ffffff;fill-opacity:1">
</g>
<g
   id="g9"
   style="fill:#ffffff;fill-opacity:1">
</g>
<g
   id="g11"
   style="fill:#ffffff;fill-opacity:1">
</g>
<g
   id="g13"
   style="fill:#ffffff;fill-opacity:1">
</g>
<g
   id="g15"
   style="fill:#ffffff;fill-opacity:1">
</g>
<g
   id="g17"
   style="fill:#ffffff;fill-opacity:1">
</g>
<g
   id="g19"
   style="fill:#ffffff;fill-opacity:1">
</g>
<g
   id="g21"
   style="fill:#ffffff;fill-opacity:1">
</g>
<g
   id="g23"
   style="fill:#ffffff;fill-opacity:1">
</g>
<g
   id="g25"
   style="fill:#ffffff;fill-opacity:1">
</g>
<g
   id="g27"
   style="fill:#ffffff;fill-opacity:1">
</g>
<g
   id="g29"
   style="fill:#ffffff;fill-opacity:1">
</g>
<g
   id="g31"
   style="fill:#ffffff;fill-opacity:1">
</g>
<g
   id="g33"
   style="fill:#ffffff;fill-opacity:1">
</g>
<g
   id="g35"
   style="fill:#ffffff;fill-opacity:1">
</g>
</svg>